name C:\Users\r0593348\3dpredictsim\Results\Batchsim_tmt_linear\Pog_s1_tmt_aCst_d00_k1000_ig24.mot
datacolumns 128
datarows 4
range 1.61206625 1.64430758
endheader
time	pelvis_tilt	pelvis_list	pelvis_rotation	pelvis_tx	pelvis_ty	pelvis_tz	hip_flexion_l	hip_adduction_l	hip_rotation_l	hip_flexion_r	hip_adduction_r	hip_rotation_r	knee_angle_l	knee_angle_r	ankle_angle_l	ankle_angle_r	subtalar_angle_l	subtalar_angle_r	tmt_angle_l	tmt_angle_r	mtp_angle_l	mtp_angle_r	lumbar_extension	lumbar_bending	lumbar_rotation	arm_flex_l	arm_add_l	arm_rot_l	arm_flex_r	arm_add_r	arm_rot_r	elbow_flex_l	elbow_flex_r	pro_sup_l	pro_sup_r	glut_med1_l/activation	glut_med2_l/activation	glut_med3_l/activation	glut_min1_l/activation	glut_min2_l/activation	glut_min3_l/activation	semimem_l/activation	semiten_l/activation	bifemlh_l/activation	bifemsh_l/activation	sar_l/activation	add_long_l/activation	add_brev_l/activation	add_mag1_l/activation	add_mag2_l/activation	add_mag3_l/activation	tfl_l/activation	pect_l/activation	grac_l/activation	glut_max1_l/activation	glut_max2_l/activation	glut_max3_l/activation	iliacus_l/activation	psoas_l/activation	quad_fem_l/activation	gem_l/activation	peri_l/activation	rect_fem_l/activation	vas_med_l/activation	vas_int_l/activation	vas_lat_l/activation	med_gas_l/activation	lat_gas_l/activation	soleus_l/activation	tib_post_l/activation	flex_dig_l/activation	flex_hal_l/activation	tib_ant_l/activation	per_brev_l/activation	per_long_l/activation	per_tert_l/activation	ext_dig_l/activation	ext_hal_l/activation	ercspn_l/activation	intobl_l/activation	extobl_l/activation	glut_med1_r/activation	glut_med2_r/activation	glut_med3_r/activation	glut_min1_r/activation	glut_min2_r/activation	glut_min3_r/activation	semimem_r/activation	semiten_r/activation	bifemlh_r/activation	bifemsh_r/activation	sar_r/activation	add_long_r/activation	add_brev_r/activation	add_mag1_r/activation	add_mag2_r/activation	add_mag3_r/activation	tfl_r/activation	pect_r/activation	grac_r/activation	glut_max1_r/activation	glut_max2_r/activation	glut_max3_r/activation	iliacus_r/activation	psoas_r/activation	quad_fem_r/activation	gem_r/activation	peri_r/activation	rect_fem_r/activation	vas_med_r/activation	vas_int_r/activation	vas_lat_r/activation	med_gas_r/activation	lat_gas_r/activation	soleus_r/activation	tib_post_r/activation	flex_dig_r/activation	flex_hal_r/activation	tib_ant_r/activation	per_brev_r/activation	per_long_r/activation	per_tert_r/activation	ext_dig_r/activation	ext_hal_r/activation	ercspn_r/activation	intobl_r/activation	extobl_r/activation	
          1.61206625	         -2.92973601	          2.17541899	         -5.32064820	          2.01508282	          0.85841559	          0.00235386	         31.65415844	          3.00311775	         -2.08001441	        -18.13301289	         -1.62894722	          7.03285940	        -14.65850294	         -6.03044363	          7.21389568	          1.42713808	         -2.59760899	          9.82527669	          0.03559949	          1.02439853	         -0.12506430	         20.69661170	         -2.01879100	         -0.50991695	          1.91907236	         -8.66795432	        -13.52365201	          6.34404898	          7.51420795	        -13.45117153	         16.42361111	         14.67849943	         35.69698409	         86.51662706	         86.51662706	          0.05000023	          0.05000006	          0.05894627	          0.05000004	          0.05000006	          0.05000024	          0.05895593	          0.05895596	          0.20714409	          0.05000014	          0.05000019	          0.11468594	          0.16506495	          0.19358734	          0.16142020	          0.11082893	          0.05895602	          0.05006226	          0.05896240	          0.05610012	          0.06951588	          0.10104702	          0.05000003	          0.05000005	          0.17799991	          0.05000029	          0.05000008	          0.05000005	          0.09867001	          0.10217949	          0.08580311	          0.05790956	          0.05000118	          0.05895590	          0.05000001	          0.05000033	          0.05000093	          0.49091236	          0.37171520	          0.21323879	          0.27913177	          0.53922173	          0.26645844	          0.07195983	          0.11168098	          0.11396125	          0.32639136	          0.11396095	          0.08196758	          0.33845818	          0.22350613	          0.11396121	          0.05000051	          0.05000005	          0.05000003	          0.07935160	          0.11396761	          0.05000003	          0.05000003	          0.05000004	          0.05000010	          0.05000009	          0.33325170	          0.05000015	          0.05000010	          0.05000344	          0.05000100	          0.05000030	          0.38563258	          0.63593484	          0.05000004	          0.05000015	          0.05408485	          0.20283933	          0.05000028	          0.05000021	          0.05000023	          0.33347801	          0.44627789	          0.31879540	          0.27691827	          0.29232610	          0.38996987	          0.05000000	          0.05985100	          0.16121715	          0.05000007	          0.05000001	          0.05000006	          0.05000000	          0.05000000	          0.05000000	
          1.62281336	         -2.92543497	          2.27174706	         -5.61394109	          2.03106179	          0.85734882	          0.00215803	         31.08426254	          3.36978913	         -1.88940911	        -18.00210275	         -1.93184255	          6.81226409	        -14.58532613	         -7.96114975	          6.64322607	          0.69647896	         -3.08316023	         10.77361973	          0.04121435	          0.98711467	         -0.10621403	         21.80135771	         -1.83334590	         -0.73328347	          1.99300042	         -9.66963155	        -13.51648572	          6.23938100	          7.40028011	        -13.45697864	         16.69202980	         14.48897014	         36.79438652	         86.51662706	         86.51662706	          0.06000486	          0.05319599	          0.05000003	          0.05895602	          0.05895581	          0.05000018	          0.05000002	          0.05000008	          0.17568358	          0.05000009	          0.05000067	          0.09726440	          0.13999021	          0.24353420	          0.17832479	          0.09798380	          0.05000013	          0.05000091	          0.05000558	          0.05000331	          0.05895580	          0.11962520	          0.05037990	          0.06912613	          0.52111104	          0.13394463	          0.08752288	          0.06951609	          0.18883813	          0.19499374	          0.16614054	          0.05000000	          0.05000000	          0.05000000	          0.05000008	          0.05895602	          0.05670449	          0.54262350	          0.32616823	          0.22336063	          0.44298555	          0.57450544	          0.23969886	          0.06102851	          0.09471566	          0.09664953	          0.27680967	          0.09664928	          0.06951600	          0.28704344	          0.18955360	          0.09664951	          0.05000387	          0.05000016	          0.05000023	          0.06729741	          0.09665498	          0.12161191	          0.06622660	          0.06915797	          0.05002230	          0.06951544	          0.28262789	          0.05381084	          0.05000111	          0.05000046	          0.05000040	          0.05000063	          0.32705162	          0.56490317	          0.05000015	          0.05889565	          0.05895595	          0.17202629	          0.05003811	          0.18682138	          0.17754523	          0.28281976	          0.37848437	          0.27161536	          0.25184346	          0.24792001	          0.33073051	          0.05000000	          0.05075916	          0.16078185	          0.05000004	          0.05000001	          0.05000004	          0.05000000	          0.06951601	          0.05000000	
          1.63356047	         -2.91719420	          2.36625331	         -5.88311383	          2.04734263	          0.85630118	          0.00197400	         30.38336137	          3.67813754	         -1.63207480	        -17.79697919	         -2.22762931	          6.57850788	        -15.01382772	        -10.02337175	          6.03394117	         -0.19124068	         -3.59292599	         11.67965147	         -0.03261966	          0.92943011	         -0.15295592	         22.77947973	         -1.62513670	         -0.96184465	          2.05704541	        -10.69407435	        -13.51185288	          6.16575016	          7.20217452	        -13.46094401	         16.89453139	         14.35751521	         37.85243656	         86.51662706	         86.51662706	          0.26176563	          0.05000001	          0.29532485	          0.05000012	          0.05000004	          0.23949604	          0.07629064	          0.05000018	          0.15980254	          0.05000004	          0.05000013	          0.08249899	          0.23635984	          0.20653934	          0.15123683	          0.13257775	          0.05000016	          0.05896119	          0.12521030	          0.05000003	          0.05000003	          0.10289507	          0.05895588	          0.05862546	          0.44194970	          0.11359729	          0.15934741	          0.05895599	          0.16015198	          0.16537249	          0.14090234	          0.05896043	          0.05895646	          0.05895595	          0.05895592	          0.05000013	          0.05000011	          0.46019422	          0.34244130	          0.18943022	          0.37569223	          0.58282241	          0.20328651	          0.05175774	          0.10613804	          0.08196762	          0.35688756	          0.08196741	          0.05895592	          0.24343908	          0.16075876	          0.08196761	          0.05000068	          0.05000024	          0.05000024	          0.05707435	          0.08197229	          0.14265591	          0.12592166	          0.05895655	          0.05895604	          0.05895597	          0.23969440	          0.08509631	          0.05349282	          0.05002318	          0.05009814	          0.05895571	          0.27736964	          0.53955961	          0.05895586	          0.05000054	          0.05000006	          0.14589399	          0.10067262	          0.15844168	          0.15057471	          0.23985695	          0.32098927	          0.23035460	          0.21358625	          0.21025885	          0.28048969	          0.05000000	          0.05000009	          0.18197275	          0.05000002	          0.05000000	          0.05000003	          0.05700304	          0.05895592	          0.05005398	
          1.64430758	         -2.90664741	          2.46019458	         -6.12035060	          2.06376931	          0.85527572	          0.00177976	         29.55547571	          3.94816127	         -1.36412992	        -17.49818800	         -2.51425930	          6.33911701	        -15.46056346	        -12.23102167	          5.58965776	         -1.23015559	         -4.09616513	         12.52702967	         -0.02169856	          0.86443338	         -0.15968145	         23.56825303	         -1.41000616	         -1.19576758	          2.11219278	        -11.69972569	        -13.51041507	          6.13862907	          6.94150030	        -13.46826828	         17.04452096	         14.25745446	         38.86243131	         86.51662706	         86.51662706	          0.31446654	          0.28697755	          0.36513548	          0.17576213	          0.21120450	          0.20311462	          0.06470145	          0.09144680	          0.13552714	          0.08196762	          0.05854238	          0.06996668	          0.20045471	          0.17516424	          0.12826270	          0.15322095	          0.05000011	          0.05000455	          0.10618985	          0.22114782	          0.16847472	          0.12915365	          0.05000002	          0.05000002	          0.37481368	          0.09634094	          0.13514121	          0.05000007	          0.13582353	          0.14522077	          0.11949809	          0.05000383	          0.05000047	          0.05000002	          0.05000000	          0.05895594	          0.05510489	          0.58388858	          0.41882552	          0.21526179	          0.63628468	          0.63966374	          0.32800060	          0.07670880	          0.09058160	          0.06951602	          0.30327434	          0.06951585	          0.05000003	          0.36616981	          0.13633812	          0.06951603	          0.05303121	          0.05000005	          0.05000004	          0.05000007	          0.06952007	          0.12724174	          0.10679310	          0.05000059	          0.05000028	          0.05000016	          0.26634444	          0.07217091	          0.05000016	          0.05000037	          0.05000023	          0.05000017	          0.23523481	          0.50168724	          0.05000003	          0.05000019	          0.05000012	          0.13437377	          0.08537966	          0.13437313	          0.12770286	          0.20342057	          0.27222818	          0.19536171	          0.18114063	          0.17831873	          0.23788087	          0.05000001	          0.09707439	          0.18639822	          0.05000005	          0.05000010	          0.05000006	          0.07665552	          0.05000000	          0.05000000	
